HIERARCHY
ROOT Hips
{
	OFFSET 0.000000 0.000000 0.000000
	CHANNELS 6 Xposition Yposition Zposition Xrotation Yrotation Zrotation
	JOINT LeftUpLeg_virtual
	{
		OFFSET 0.000000 0.000000 0.000000
		CHANNELS 3 Xrotation Yrotation Zrotation
		JOINT LeftUpLeg
		{
			OFFSET 10.205400 -3.823500 0.155100
			CHANNELS 3 Xrotation Yrotation Zrotation
			JOINT LeftLeg
			{
				OFFSET 0.708757 -12.982077 0.567790
				CHANNELS 3 Xrotation Yrotation Zrotation
				JOINT LeftFoot
				{
					OFFSET -0.708756 -10.717838 -2.184338
					CHANNELS 3 Xrotation Yrotation Zrotation
					JOINT LeftToeBase
					{
						OFFSET 0.108149 -7.191104 7.560241
						CHANNELS 3 Xrotation Yrotation Zrotation
						JOINT LeftToe_End
						{
							OFFSET 0.070230 0.081724 4.490308
							CHANNELS 3 Xrotation Yrotation Zrotation
							End Site
							{
								OFFSET 0 0 0
							}
						}
					}
				}
			}
		}
	}
	JOINT RightUpLeg_virtual
	{
		OFFSET 0.000000 0.000000 0.000000
		CHANNELS 3 Xrotation Yrotation Zrotation
		JOINT RightUpLeg
		{
			OFFSET -10.205400 -3.823500 0.005500
			CHANNELS 3 Xrotation Yrotation Zrotation
			JOINT RightLeg
			{
				OFFSET -0.708756 -12.982134 0.610632
				CHANNELS 3 Xrotation Yrotation Zrotation
				JOINT RightFoot
				{
					OFFSET 0.708754 -10.717769 -1.945823
					CHANNELS 3 Xrotation Yrotation Zrotation
					JOINT RightToeBase
					{
						OFFSET -0.108140 -7.191069 7.372968
						CHANNELS 3 Xrotation Yrotation Zrotation
						JOINT RightToe_End
						{
							OFFSET -0.070227 0.081735 4.479403
							CHANNELS 3 Xrotation Yrotation Zrotation
							End Site
							{
								OFFSET 0 0 0
							}
						}
					}
				}
			}
		}
	}
	JOINT Spine_virtual
	{
		OFFSET 0.000000 0.000000 0.000000
		CHANNELS 3 Xrotation Yrotation Zrotation
		JOINT Spine
		{
			OFFSET 0.000000 6.876099 0.125700
			CHANNELS 3 Xrotation Yrotation Zrotation
			JOINT Spine1
			{
				OFFSET 0.000000 5.730043 0.104720
				CHANNELS 3 Xrotation Yrotation Zrotation
				JOINT Spine1_split
				{
					OFFSET 0.000000 5.730043 0.104720
					CHANNELS 3 Xrotation Yrotation Zrotation
					JOINT Spine2
					{
						OFFSET 0.000000 5.730043 0.104720
						CHANNELS 3 Xrotation Yrotation Zrotation
						JOINT Neck_virtual
						{
							OFFSET 0.000000 0.000000 0.000000
							CHANNELS 3 Xrotation Yrotation Zrotation
							JOINT Neck
							{
								OFFSET 0.000000 10.314075 0.188496
								CHANNELS 3 Xrotation Yrotation Zrotation
								JOINT Head
								{
									OFFSET 0.000000 7.643700 -2.377400
									CHANNELS 3 Xrotation Yrotation Zrotation
									JOINT HeadTop_End
									{
										OFFSET 0.000000 43.788605 -13.619600
										CHANNELS 3 Xrotation Yrotation Zrotation
										End Site
										{
											OFFSET 0 0 0
										}
									}
								}
							}
						}
						JOINT LeftShoulder_virtual
						{
							OFFSET 0.000000 0.000000 0.000000
							CHANNELS 3 Xrotation Yrotation Zrotation
							JOINT LeftShoulder
							{
								OFFSET 2.196100 4.412489 0.087492
								CHANNELS 3 Xrotation Yrotation Zrotation
								JOINT LeftShoulder_split
								{
									OFFSET 2.196100 4.412489 0.087492
									CHANNELS 3 Xrotation Yrotation Zrotation
									JOINT LeftArm
									{
										OFFSET 8.771219 -2.981674 -0.026999
										CHANNELS 3 Xrotation Yrotation Zrotation
										JOINT LeftForeArm
										{
											OFFSET 8.512804 0.000000 -0.000000
											CHANNELS 3 Xrotation Yrotation Zrotation
											JOINT LeftHand
											{
												OFFSET 18.484802 0.000000 -0.000000
												CHANNELS 3 Xrotation Yrotation Zrotation
												End Site
												{
													OFFSET 0 0 0
												}
											}
										}
									}
								}
							}
						}
						JOINT RightShoulder_virtual
						{
							OFFSET 0.000000 0.000000 0.000000
							CHANNELS 3 Xrotation Yrotation Zrotation
							JOINT RightShoulder
							{
								OFFSET -2.196100 4.412496 0.070690
								CHANNELS 3 Xrotation Yrotation Zrotation
								JOINT RightShoulder_split
								{
									OFFSET -2.196100 4.412496 0.070690
									CHANNELS 3 Xrotation Yrotation Zrotation
									JOINT RightArm
									{
										OFFSET -8.771282 -2.981682 -0.094208
										CHANNELS 3 Xrotation Yrotation Zrotation
										JOINT RightForeArm
										{
											OFFSET -8.494598 0.000000 0.000000
											CHANNELS 3 Xrotation Yrotation Zrotation
											JOINT RightHand
											{
												OFFSET -18.483803 0.000000 0.000001
												CHANNELS 3 Xrotation Yrotation Zrotation
												End Site
												{
													OFFSET 0 0 0
												}
											}
										}
									}
								}
							}
						}
					}
				}
			}
		}
	}
}
MOTION
Frames: 10
Frame Time: 0.03333333
-0.094279 29.003635 0.131535 0.000000 0.000000 0.000000 3.005127 -61.485206 5.274065 -34.791734 7.217010 27.786369 43.662712 -9.024420 -8.099076 -13.320262 -1.128403 -10.398836 1.008894 1.026357 0.261617 0.000000 0.000000 0.000000 2.103565 -60.022405 5.204173 -26.753581 -8.689887 -28.766557 43.338749 6.888966 -6.092701 -24.797809 -1.498573 25.323138 3.104660 -2.062855 -1.688127 0.000000 0.000000 0.000000 1.970430 -60.377329 4.458572 10.361738 0.898309 -1.848823 9.224630 -0.073539 -5.823925 0.762821 -2.807838 1.406233 0.000000 0.000000 0.000000 10.146581 0.286866 -5.797132 -18.889069 20.951028 10.345432 4.816263 29.999512 -5.818708 0.000000 0.000000 0.000000 11.051725 -0.214365 -5.522067 -6.315101 -10.870798 -4.682994 0.522885 -0.204670 -3.446641 -19.671148 8.201220 -34.003414 2.654955 -46.798404 2.259103 0.000000 0.000000 0.000000 10.121325 -0.046056 -5.396823 -4.747221 11.094433 3.926937 4.419910 2.204541 -0.516328 -34.769863 -20.633590 36.294034 -155.409371 63.237996 153.529798 0.000000 0.000000 0.000000 
-0.068320 29.002319 0.287365 0.000000 0.000000 0.000000 2.954634 -61.506393 5.294843 -34.749045 7.366263 27.629474 43.707910 -8.889383 -8.159405 -13.418623 -1.067769 -10.241565 0.984505 1.003026 0.314286 0.000000 0.000000 0.000000 2.072425 -60.119591 5.232792 -26.668969 -8.532120 -29.015272 43.376670 6.972863 -6.038042 -24.855306 -1.572550 25.283340 3.006779 -2.014814 -1.710003 0.000000 0.000000 0.000000 2.093077 -60.444763 4.569873 10.369442 0.963468 -1.885025 9.262484 -0.029251 -5.801201 0.781296 -2.921391 1.414449 0.000000 0.000000 0.000000 10.174957 0.315205 -5.813899 -18.747391 20.823240 10.445987 4.706233 29.949290 -5.805403 0.000000 0.000000 0.000000 11.077676 -0.199957 -5.492447 -6.343252 -11.018588 -4.682373 0.409096 -0.338794 -3.423728 -19.848354 8.116618 -34.030417 2.475724 -46.665201 2.295930 0.000000 0.000000 0.000000 10.004593 -0.047106 -5.373677 -4.772818 11.081862 3.902893 4.735961 2.137512 -0.510175 -34.730238 -20.724749 36.543855 -155.362311 63.001453 153.303596 0.000000 0.000000 0.000000 
0.006867 29.013826 0.490780 0.000000 0.000000 0.000000 2.936732 -61.449204 5.347592 -34.648307 7.533717 27.305517 43.944249 -8.821425 -8.209158 -13.707930 -1.104381 -9.883204 0.912813 0.975211 0.406376 0.000000 0.000000 0.000000 2.058532 -60.105740 5.269323 -26.369634 -8.518533 -29.489468 43.033122 7.162437 -5.994120 -24.734313 -1.649400 25.519815 2.970591 -1.994765 -1.679637 0.000000 0.000000 0.000000 2.247147 -60.472296 4.736896 10.344806 1.087299 -1.919873 9.297446 0.015896 -5.755426 0.807820 -2.927535 1.366886 0.000000 0.000000 0.000000 10.179791 0.345617 -5.808620 -18.635821 20.530731 10.548684 4.599857 29.748295 -6.021491 0.000000 0.000000 0.000000 11.058026 -0.197411 -5.444446 -6.384778 -11.187159 -4.766889 0.222227 -0.401075 -3.479674 -20.317050 7.776048 -33.957908 2.490095 -46.141073 2.615341 0.000000 0.000000 0.000000 9.874351 -0.049116 -5.333042 -4.827071 11.071903 4.054079 4.854586 2.045070 -0.464488 -34.481213 -21.016747 36.937653 -155.631789 63.218708 153.037027 0.000000 0.000000 0.000000 
0.123875 29.030396 0.717781 0.000000 0.000000 0.000000 2.962288 -61.355733 5.435274 -34.536595 7.704984 26.835588 44.358834 -8.798031 -8.255434 -14.161517 -1.237251 -9.343700 0.867674 0.945155 0.523836 0.000000 0.000000 0.000000 2.079613 -60.006600 5.317867 -25.940188 -8.632811 -30.141936 42.340725 7.427102 -5.936905 -24.442527 -1.731623 25.985397 3.005055 -1.995484 -1.618842 0.000000 0.000000 0.000000 2.397221 -60.455097 4.908069 10.297471 1.246208 -1.945811 9.329057 0.055297 -5.685161 0.821025 -2.877944 1.242290 0.000000 0.000000 0.000000 10.164021 0.370061 -5.774355 -18.563011 20.035943 10.673495 4.512495 29.375595 -6.458814 0.000000 0.000000 0.000000 10.998424 -0.206569 -5.370203 -6.440553 -11.349910 -4.919586 -0.084424 -0.359002 -3.547280 -20.943786 7.244966 -33.805055 2.666955 -45.392269 3.182485 0.000000 0.000000 0.000000 9.736925 -0.056736 -5.271222 -4.907352 11.073806 4.344516 4.777497 1.945523 -0.391653 -34.192989 -21.443883 37.384815 -156.109656 63.927251 152.626055 0.000000 0.000000 0.000000 
0.270281 29.049931 0.984341 0.000000 0.000000 0.000000 3.021467 -61.253382 5.546222 -34.415694 7.891797 26.221019 44.877276 -8.762237 -8.304933 -14.749090 -1.435937 -8.623480 0.874632 0.918218 0.649930 0.000000 0.000000 0.000000 2.126070 -59.883328 5.378590 -25.464000 -8.833711 -30.906312 41.336178 7.752844 -5.853153 -23.998995 -1.814444 26.646467 3.038642 -2.011882 -1.557094 0.000000 0.000000 0.000000 2.542462 -60.389131 5.051803 10.228090 1.409267 -1.954722 9.355196 0.081895 -5.587990 0.828943 -2.763017 1.115329 0.000000 0.000000 0.000000 10.136819 0.379975 -5.708565 -18.516098 19.300784 10.837593 4.450183 28.823791 -7.116725 0.000000 0.000000 0.000000 10.905601 -0.224574 -5.262648 -6.512961 -11.499761 -5.141361 -0.418031 -0.206491 -3.600953 -21.587844 6.597784 -33.607881 2.911419 -44.669215 3.915643 0.000000 0.000000 0.000000 9.599087 -0.072331 -5.188131 -5.004521 11.093099 4.736427 4.566073 1.842170 -0.235666 -34.029174 -21.880234 37.764604 -156.639488 65.130778 151.924362 0.000000 0.000000 0.000000 
0.430363 29.078386 1.301018 0.000000 0.000000 0.000000 3.104954 -61.167438 5.664885 -34.251374 8.109790 25.481696 45.406841 -8.662926 -8.357100 -15.443353 -1.652881 -7.754525 0.929762 0.899448 0.765961 0.000000 0.000000 0.000000 2.177772 -59.790547 5.438528 -24.995701 -9.080736 -31.724436 40.088009 8.117512 -5.731361 -23.380815 -1.890301 27.478177 2.975536 -2.041735 -1.515064 0.000000 0.000000 0.000000 2.685891 -60.308514 5.156605 10.132846 1.546914 -1.942159 9.375131 0.087884 -5.470064 0.882057 -2.617715 1.011545 0.000000 0.000000 0.000000 10.101608 0.371313 -5.619304 -18.476784 18.300922 11.038401 4.386615 28.039684 -7.950302 0.000000 0.000000 0.000000 10.787813 -0.248175 -5.126056 -6.601740 -11.640107 -5.439756 -0.726044 -0.072578 -3.636924 -22.084489 5.998944 -33.382942 3.171480 -44.237930 4.767582 0.000000 0.000000 0.000000 9.465125 -0.096529 -5.091977 -5.124150 11.117461 5.215339 4.324312 1.869829 -0.108512 -34.134430 -22.213561 37.947438 -156.950507 66.832499 150.699532 0.000000 0.000000 0.000000 
0.596014 29.119585 1.676146 0.000000 0.000000 0.000000 3.209342 -61.127413 5.773901 -33.989449 8.370582 24.638021 45.858266 -8.455272 -8.405842 -16.215303 -1.846425 -6.750877 0.990684 0.889005 0.862936 0.000000 0.000000 0.000000 2.275406 -59.730974 5.518321 -24.518882 -9.351225 -32.551036 38.617166 8.507378 -5.556002 -22.579456 -1.936025 28.435046 2.838303 -2.085539 -1.501840 0.000000 0.000000 0.000000 2.843984 -60.230370 5.226126 10.012720 1.643129 -1.907189 9.383843 0.083558 -5.345658 0.979033 -2.444213 0.915509 0.000000 0.000000 0.000000 10.048468 0.354447 -5.524857 -18.417199 17.009379 11.255912 4.315410 26.941285 -8.910141 0.000000 0.000000 0.000000 10.654746 -0.269838 -4.981294 -6.703353 -11.772035 -5.823609 -1.018646 -0.074102 -3.654127 -22.376806 5.599072 -33.154664 3.412091 -44.249370 5.705821 0.000000 0.000000 0.000000 9.336128 -0.121879 -4.998068 -5.263610 11.159132 5.808507 4.139472 2.045147 0.000342 -34.502540 -22.400454 37.885758 -156.702913 68.987165 148.697590 0.000000 0.000000 0.000000 
0.761691 29.181719 2.086403 0.000000 0.000000 0.000000 3.337969 -61.149748 5.869432 -33.581305 8.691540 23.714898 46.179968 -8.115132 -8.448580 -17.037367 -1.990066 -5.634604 1.047771 0.887370 0.927484 0.000000 0.000000 0.000000 2.442759 -59.738849 5.625581 -24.019129 -9.638566 -33.335158 36.955042 8.888685 -5.320878 -21.625977 -1.945972 29.434086 2.700426 -2.135201 -1.501927 0.000000 0.000000 0.000000 3.009715 -60.177607 5.260337 9.881813 1.686607 -1.851450 9.369118 0.080054 -5.230958 1.003924 -2.221906 0.825280 0.000000 0.000000 0.000000 9.970008 0.340910 -5.444275 -18.319619 15.400596 11.454715 4.217593 25.461291 -9.920536 0.000000 0.000000 0.000000 10.503484 -0.290820 -4.850282 -6.817871 -11.895777 -6.298943 -1.329354 -0.138893 -3.645030 -22.491550 5.472374 -32.978308 3.700958 -44.783816 6.763519 0.000000 0.000000 0.000000 9.206798 -0.140977 -4.924610 -5.431103 11.225461 6.563802 4.110388 2.213759 0.065000 -35.099342 -22.344187 37.560091 -155.476866 71.519095 145.604497 0.000000 0.000000 0.000000 
0.927401 29.260719 2.528799 0.000000 0.000000 0.000000 3.489328 -61.211609 5.953516 -33.030897 9.060290 22.759210 46.357112 -7.680216 -8.483407 -17.857253 -2.100935 -4.479997 1.105764 0.892125 0.965486 0.000000 0.000000 0.000000 2.657939 -59.805177 5.737046 -23.475855 -9.942030 -34.048985 35.137659 9.200473 -5.022532 -20.541382 -1.920869 30.364012 2.609289 -2.178078 -1.497485 0.000000 0.000000 0.000000 3.141523 -60.132125 5.247122 9.756420 1.675987 -1.789504 9.316643 0.079839 -5.141932 0.964222 -1.924129 0.769939 0.000000 0.000000 0.000000 9.847913 0.334642 -5.390685 -18.154475 13.488057 11.568028 4.073029 23.525403 -10.886442 0.000000 0.000000 0.000000 10.324260 -0.310042 -4.753968 -6.946994 -12.000316 -6.866155 -1.651309 -0.227942 -3.613937 -22.597377 5.651216 -32.885995 4.110380 -45.784349 7.973883 0.000000 0.000000 0.000000 9.061405 -0.154224 -4.883776 -5.628655 11.304614 7.533192 4.256304 2.379214 0.055727 -35.873465 -21.945295 36.977736 -152.593926 74.307622 140.843009 0.000000 0.000000 0.000000 
1.091938 29.352173 2.978334 0.000000 0.000000 0.000000 3.622805 -61.283285 5.996155 -32.391223 9.464097 21.825258 46.400436 -7.216702 -8.514430 -18.596464 -2.219879 -3.348102 1.123543 0.899790 1.003203 0.000000 0.000000 0.000000 2.870938 -59.897542 5.814238 -22.858770 -10.269476 -34.678947 33.163198 9.430301 -4.674339 -19.350775 -1.867924 31.194919 2.566387 -2.213981 -1.490671 0.000000 0.000000 0.000000 3.246396 -60.079232 5.192541 9.653213 1.623071 -1.737340 9.210599 0.083176 -5.083785 0.866857 -1.571424 0.763306 0.000000 0.000000 0.000000 9.678120 0.331960 -5.368592 -17.880786 11.309163 11.558349 3.857115 21.071516 -11.700100 0.000000 0.000000 0.000000 10.106388 -0.328428 -4.694455 -7.085502 -12.077303 -7.507745 -1.974643 -0.296708 -3.546250 -22.877053 6.010331 -32.888525 4.620802 -46.984304 9.323726 0.000000 0.000000 0.000000 8.884728 -0.163718 -4.874447 -5.851051 11.362197 8.742073 4.487727 2.534905 0.031823 -36.710990 -21.183451 36.235031 -146.719184 77.254412 133.162297 0.000000 0.000000 0.000000 
